<?xml version="1.0" encoding="UTF-8" standalone="no"?>
<svg
   width="361.72272"
   height="156.05261"
   viewBox="0 0 361.72272 156.05261"
   fill="none"
   version="1.1"
   id="svg14"
   sodipodi:docname="mint_inside_logo.svg"
   xml:space="preserve"
   inkscape:version="1.3.2 (091e20e, 2023-11-25, custom)"
   xmlns:inkscape="http://www.inkscape.org/namespaces/inkscape"
   xmlns:sodipodi="http://sodipodi.sourceforge.net/DTD/sodipodi-0.dtd"
   xmlns="http://www.w3.org/2000/svg"
   xmlns:svg="http://www.w3.org/2000/svg"><defs
     id="defs14" /><sodipodi:namedview
     id="namedview14"
     pagecolor="#ffffff"
     bordercolor="#000000"
     borderopacity="0.25"
     inkscape:showpageshadow="2"
     inkscape:pageopacity="0.0"
     inkscape:pagecheckerboard="0"
     inkscape:deskcolor="#d1d1d1"
     inkscape:zoom="1.2703125"
     inkscape:cx="280.63961"
     inkscape:cy="-88.560885"
     inkscape:window-width="2560"
     inkscape:window-height="1009"
     inkscape:window-x="-8"
     inkscape:window-y="-8"
     inkscape:window-maximized="1"
     inkscape:current-layer="svg14" /><path
     style="fill:#000000;stroke-width:0.661238"
     d="m 211.49189,155.65679 c -0.9676,-0.20693 -2.49442,-0.68136 -3.39291,-1.0543 l -1.63363,-0.67808 -0.0711,-2.82078 c -0.0391,-1.55143 -0.0249,-2.82078 0.0315,-2.82078 0.0565,0 0.767,0.29424 1.57903,0.65386 2.45936,1.08917 4.94661,1.60809 7.7078,1.60809 3.98689,0 5.70665,-0.82662 5.70665,-2.74296 0,-1.7894 -0.94521,-2.49216 -5.53072,-4.11204 -5.74248,-2.0286 -7.29563,-3.01796 -8.45371,-5.38499 -1.81939,-3.71869 -0.0558,-8.19293 3.93538,-9.98407 1.90861,-0.85653 3.5695,-1.14939 6.51861,-1.14939 2.74562,0 4.76793,0.31448 6.72069,1.0451 l 1.33364,0.49898 v 2.73761 2.73762 l -1.1254,-0.48241 c -2.52723,-1.0833 -7.13507,-1.57536 -9.53656,-1.01838 -1.25912,0.29202 -2.25811,1.03456 -2.36506,1.75792 -0.26288,1.77797 0.70026,2.5083 5.4872,4.1608 1.86611,0.64419 3.90185,1.45891 4.52389,1.81046 1.50997,0.8534 3.18921,2.48208 3.83229,3.7169 0.65188,1.25171 0.89035,4.42436 0.45061,5.99495 -0.73946,2.6411 -3.47571,4.83151 -6.95685,5.56905 -2.19312,0.46466 -6.48573,0.44351 -8.76144,-0.0432 z m 58.22584,0.0593 c -4.07049,-1.32663 -6.6688,-6.04951 -7.00455,-12.73197 -0.47137,-9.38181 3.33403,-15.81525 9.34861,-15.80477 2.83234,0.005 5.23163,1.47877 6.45699,3.96641 l 0.58017,1.17782 0.0671,-6.34601 0.0671,-6.34602 h 3.00315 3.00315 l 0.0794,13.25752 c 0.0593,9.88426 0.16078,13.49907 0.39917,14.20687 0.40166,1.19256 1.56723,2.53738 2.55311,2.94574 l 0.75514,0.3128 v 2.7341 c 0,3.15291 0.0984,3.06369 -2.49042,2.25796 -2.96852,-0.92391 -5.09253,-2.83462 -5.85039,-5.26287 -0.32178,-1.03104 -0.70698,-1.39989 -0.70698,-0.67699 0,0.75334 -1.23093,3.11886 -2.15544,4.14218 -1.92729,2.13328 -5.37833,3.05603 -8.10542,2.16723 z m 6.20551,-5.10391 c 4.30213,-3.18594 4.17153,-15.14981 -0.19753,-18.09412 -1.59168,-1.07264 -3.49533,-0.57743 -4.90995,1.27724 -2.72838,3.57709 -2.72838,12.07771 0,15.65479 1.42973,1.87447 3.50722,2.34716 5.10748,1.16209 z m 26.80048,5.12552 c -4.11426,-1.3704 -7.18432,-5.00659 -8.30129,-9.83211 -0.51928,-2.24338 -0.51779,-6.32978 0.003,-8.57592 0.97397,-4.19967 3.53616,-7.65824 6.82862,-9.2176 1.60077,-0.75815 1.90505,-0.81504 4.35981,-0.81504 2.33802,0 2.80305,0.0769 4.07811,0.67453 2.01577,0.94475 3.28901,2.04125 4.60244,3.96351 1.71051,2.50342 2.8582,6.34491 2.87553,9.62479 l 0.005,0.94249 h -8.58022 -8.57974 l 0.16548,1.44513 c 0.55385,4.83689 3.14181,7.84025 6.24975,7.2529 1.72047,-0.32515 3.39634,-1.96894 3.84995,-3.77627 l 0.16295,-0.6492 h 3.00561 c 3.42682,0 3.24639,-0.20575 2.09389,2.38761 -1.19198,2.68222 -3.36082,4.93102 -5.88607,6.10309 -1.65728,0.7692 -5.29732,1.01705 -6.93341,0.47209 z m 8.01031,-17.7072 c 0.0677,-0.1096 -0.13347,-0.96181 -0.44711,-1.89381 -0.88306,-2.624 -2.62962,-4.1901 -4.67293,-4.1901 -1.33403,0 -2.24706,0.48873 -3.37514,1.80664 -0.85098,0.99417 -2.00339,3.84213 -1.73514,4.28805 0.15229,0.25316 10.07365,0.24272 10.23032,-0.0108 z m -163.7076,14.90452 v -2.64153 h 4.40148 4.40149 l -0.0661,-8.73362 -0.0661,-8.73363 -3.45575,-0.0699 -3.45576,-0.0699 v -2.50618 -2.50618 h 6.53452 6.53451 v 11.30319 11.30318 l 3.83274,0.0694 3.83274,0.0694 v 2.51327 2.51328 l -11.2469,0.0654 -11.2469,0.0654 z m 29.9059,-4.71498 c -0.003,-11.25239 -0.43167,-13.4648 -2.88659,-14.90349 l -1.13259,-0.66374 v -2.64921 -2.64922 l 1.18803,0.16284 c 1.4204,0.19469 3.89757,1.31566 5.03725,2.27946 0.97206,0.82205 2.00337,2.50453 2.44028,3.9811 l 0.31338,1.05908 0.19128,-0.87964 c 0.30264,-1.39182 1.49954,-3.55692 2.55399,-4.61995 1.43187,-1.44352 3.13283,-2.16046 5.13278,-2.16344 3.32572,-0.005 5.43593,1.33218 6.86898,4.35249 1.63262,3.44091 2.16075,7.82186 2.16075,17.92403 v 6.12102 h -3.01593 -3.01593 l -6.7e-4,-4.96372 c -0.001,-6.23204 -0.38023,-12.30822 -0.89013,-14.26639 -0.77725,-2.98483 -2.07027,-4.39467 -4.03054,-4.39467 -2.02357,0 -3.47206,1.79557 -4.25767,5.27788 -0.33402,1.48056 -0.45232,3.65082 -0.55146,10.11593 l -0.1262,8.23097 h -2.98836 -2.98837 z m 58.81265,4.71239 v -2.63894 h 4.39823 4.39823 v -8.79645 -8.79646 h -3.51859 -3.51858 v -2.51328 -2.51327 h 6.53452 6.53451 v 11.30973 11.30973 h 3.89557 3.89557 v 2.63894 2.63894 h -11.30973 -11.30973 z m 9.90257,-29.25587 c -1.43697,-0.6526 -2.18889,-1.80056 -2.30948,-3.52591 -0.0808,-1.15658 0.005,-1.55 0.49596,-2.27241 1.29181,-1.90093 3.42779,-2.53821 5.38865,-1.60772 2.5018,1.18718 3.02178,4.64314 0.99428,6.60827 -1.33847,1.2973 -2.87774,1.56604 -4.56941,0.79777 z m -88.91067,-1.09191 c -0.43727,-0.44924 -3.94937,-6.21721 -7.80466,-12.81769 l -7.00961,-12.000881 h -16.54897 -16.54897 l -0.002,1.947782 c -0.004,3.023879 -1.20536,5.145279 -3.63849,6.423939 -0.81313,0.42731 -1.57467,0.54913 -3.92933,0.62856 l -2.920724,0.0985 -0.122128,2.42493 c -0.06717,1.33371 -0.293786,2.82899 -0.503588,3.32284 -0.584324,1.37546 -1.940122,2.76349 -3.332774,3.41202 l -1.258466,0.58603 -43.85661,0.001 C 19.81627,116.61269 5.09588,116.52764 4.4674,116.3531 3.03484,115.95524 1.48638,114.62853 0.70188,113.12684 L 0,111.78327 V 75.210162 C 0,47.013538 0.0708,38.400132 0.30888,37.602593 0.49767,36.97031 1.10837,36.064335 1.87968,35.272324 3.46089,33.648634 4.89082,33.175207 8.21375,33.175207 h 2.34199 v -1.965001 c 0,-2.806235 0.54876,-4.43419 1.97567,-5.861102 2.13293,-2.132929 -1.40455,-1.975667 44.439836,-1.975667 h 40.543752 v -6.87156 c 0,-7.351156 0.133199,-8.387362 1.300981,-10.120857 0.321186,-0.476779 1.146853,-1.231054 1.834821,-1.676166 l 1.25084,-0.809283 38.42028,-0.06599 c 25.67935,-0.04411 38.73786,0.01951 39.37793,0.191878 1.26047,0.339407 3.34189,2.235295 3.92953,3.579248 0.44309,1.013381 0.47169,2.271208 0.53957,23.736167 l 0.0717,22.666068 0.91017,-0.315107 c 0.86143,-0.298238 0.95314,-0.442057 1.71249,-2.685552 1.16416,-3.439486 1.72243,-4.590113 3.58892,-7.396983 3.81646,-5.739295 9.90715,-10.290379 16.76718,-12.528762 3.39674,-1.108335 5.36962,-1.434947 9.55044,-1.581074 6.3065,-0.220423 10.85198,0.729227 16.33629,3.413027 3.55619,1.74026 6.29229,3.720912 9.01303,6.524489 1.08673,1.11982 2.01626,2.036038 2.06561,2.036038 0.0493,0 0.86515,-0.501608 1.81286,-1.114682 0.94771,-0.613073 2.39084,-1.409971 3.20694,-1.770895 1.71021,-0.75633 4.90744,-1.638316 5.93899,-1.638316 0.52081,0 1.18307,-0.439558 2.52877,-1.678408 9.27973,-8.542918 22.18341,-14.013466 37.26031,-15.796594 3.25351,-0.384794 14.68655,-0.564195 15.21317,-0.23872 0.71655,0.442851 1.65071,-4.479736 1.39316,-7.341323 C 311.33346,9.606871 310.86227,7.987492 309.59629,5.213565 308.68056,3.207098 308.61728,2.936228 308.87907,2.143033 309.29534,0.881715 310.45047,0 311.68666,0 c 1.29425,0 5.27737,2.016353 8.06267,4.081532 5.97482,4.430064 10.58209,11.20743 12.522,18.420057 l 0.53868,2.00283 2.19975,0.952302 c 5.75701,2.492306 11.8069,6.628899 16.22019,11.090524 7.06666,7.144062 10.49343,14.866348 10.49278,23.645652 -4e-4,5.30965 -1.14398,9.826144 -3.70877,14.647436 -7.44647,13.997921 -25.21095,24.068246 -46.24241,26.213897 -3.56417,0.36362 -12.28412,0.36264 -15.83361,-0.002 -5.68914,-0.5841 -12.48791,-2.045857 -17.12702,-3.682348 -1.34145,-0.473215 -2.51672,-0.860383 -2.6117,-0.860383 -0.095,0 -0.74166,0.765138 -1.43706,1.700307 -1.56555,2.105344 -4.73503,5.159124 -6.83392,6.584464 -6.02692,4.0928 -13.77474,5.92493 -21.20304,5.01389 l -2.21452,-0.2716 -2.1837,2.1 c -5.11879,4.92254 -11.12011,7.60114 -18.46482,8.24147 -8.06855,0.70343 -16.69218,-2.06439 -22.5718,-7.24458 l -1.15375,-1.01651 -1.50692,0.469 c -8.18667,2.54798 -17.05927,0.1035 -23.63037,-6.51036 -1.82527,-1.83715 -4.09507,-4.95421 -5.00042,-6.86695 l -0.4461,-0.942475 h -3.72336 -3.72337 v 11.699195 c 0,12.83452 0.007,12.77606 -1.49973,13.55495 -0.40549,0.20968 -1.26311,0.38124 -1.90584,0.38124 -0.98777,0 -1.2916,-0.12639 -1.96362,-0.81681 z m 52.315,-21.46191 c 0.3744,-0.27271 0.94514,-0.99814 1.26831,-1.612084 l 0.58759,-1.116262 -0.14953,-16.587608 c -0.0823,-9.123181 -0.21795,-17.548928 -0.30156,-18.723888 -0.10631,-1.494008 -0.0723,-2.060716 0.11304,-1.884952 0.14579,0.138232 5.06438,8.563979 10.93023,18.723889 11.51488,19.944316 11.97745,20.634155 14.3872,21.455235 2.6719,0.91041 5.24971,0.31625 6.98064,-1.608961 1.99277,-2.216443 1.92573,-1.351372 1.91945,-24.763651 -0.005,-19.762852 -0.0249,-20.635171 -0.48805,-21.655303 -1.34213,-2.956593 -5.75906,-3.003971 -7.23475,-0.0776 -0.56369,1.117836 -0.56546,1.160168 -0.55591,13.32035 0.005,6.709424 0.11185,15.080031 0.23684,18.601348 0.125,3.521311 0.1994,6.430256 0.16534,6.46431 -0.0341,0.03405 -4.86245,-8.270257 -10.72975,-18.454031 -11.92214,-20.693023 -12.13257,-20.99995 -14.96499,-21.827463 -2.78032,-0.812284 -5.83824,0.208323 -7.31635,2.4419 -1.34901,2.038484 -1.32985,1.695341 -1.32985,23.820692 0,12.585556 0.0948,20.838171 0.24532,21.363128 0.29562,1.030761 1.11988,1.971371 2.14229,2.444671 1.03371,0.47853 3.23164,0.30476 4.09449,-0.32372 z m -171.46709,-3.470904 0.6169,-0.616895 0.008,-14.399914 c 0.007,-12.867118 0.0482,-14.346718 0.38569,-13.900164 0.20773,0.274864 1.29225,2.197519 2.41004,4.272564 3.30284,6.131356 3.16658,6.023727 7.62636,6.023727 3.32221,0 4.18868,-0.26433 5.10053,-1.555973 0.26984,-0.382215 1.47279,-2.504499 2.673232,-4.716175 1.200438,-2.211683 2.289199,-4.128685 2.41947,-4.26 0.148276,-0.149473 0.236855,5.141788 0.236855,14.148584 v 14.387351 l 0.616896,0.616895 0.616895,0.616896 h 7.444913 7.444913 l 0.734648,-0.734649 0.734649,-0.734649 V 70.407098 c 0,-16.874009 -0.09007,-26.629225 -0.24973,-27.049177 -0.476699,-1.25382 -1.330695,-1.386504 -8.923718,-1.386504 -7.570125,0 -8.055262,0.07557 -9.197135,1.432605 -0.345688,0.410834 -2.302583,3.823887 -4.348648,7.58457 -2.21324,4.067943 -3.96124,6.995595 -4.3154,7.227643 -0.43615,0.28578 -0.77781,0.329191 -1.27816,0.162413 -0.56307,-0.187692 -1.31447,-1.371341 -4.28287,-6.746638 -1.98,-3.585448 -3.92029,-7.03479 -4.31175,-7.665201 -1.2367,-1.991603 -1.42354,-2.027965 -9.98498,-1.943293 l -7.43846,0.07356 -0.60625,0.705164 -0.60624,0.705164 v 26.763774 26.76377 l 0.61689,0.616896 0.6169,0.616895 h 7.31134 7.31134 z M 320.19097,80.55016 v -4.146902 h -2.63894 -2.63893 V 60.569634 44.736014 h 3.03245 c 1.66785,0 3.25121,0.117078 3.51858,0.26017 0.44225,0.236684 0.48613,0.55431 0.48613,3.518587 v 3.258406 h 5.02655 5.02655 v -7.037163 c 0,-6.702058 -0.0239,-7.061097 -0.50266,-7.539821 -0.49504,-0.495035 -0.83776,-0.502653 -22.61946,-0.502653 -21.7817,0 -22.12442,0.0076 -22.61946,0.502653 -0.47872,0.478724 -0.50266,0.837763 -0.50266,7.539821 v 7.037163 h 5.02655 5.02655 v -3.258406 c 0,-2.964277 0.0439,-3.281903 0.48613,-3.518587 0.26737,-0.143092 1.85073,-0.26017 3.51858,-0.26017 h 3.03245 v 15.83362 15.833624 h -2.63893 -2.63894 v 4.146902 4.146902 h 11.30973 11.30973 z M 159.84413,78.288216 v -4.398231 h -5.27788 -5.27787 V 54.914772 35.939557 h -11.05841 -11.0584 v 4.27257 4.272563 h 5.90619 5.90619 v 14.702646 14.702649 h -7.41415 -7.41416 v 4.398231 4.398226 h 17.84424 17.84425 z M 147.12065,28.946045 c 3.35257,-1.88279 4.55924,-6.058621 2.72472,-9.429249 -1.37047,-2.517994 -3.83558,-3.852208 -6.69353,-3.622798 -1.94664,0.156258 -3.32041,0.852799 -4.64109,2.353181 -2.49851,2.838457 -2.35788,6.851597 0.33444,9.543921 1.63647,1.636472 3.06443,2.165647 5.38519,1.995676 1.14246,-0.08368 1.97179,-0.324919 2.89027,-0.840731 z"
     id="path15" /></svg>
